<svg version="1.1" id="Layer_1" xmlns="http://www.w3.org/2000/svg" xmlns:xlink="http://www.w3.org/1999/xlink" x="0px" y="0px"
	 width="100%" viewBox="0 0 450 150" enable-background="new 0 0 450 150" xml:space="preserve">
<path fill="#FFFFFF" opacity="1.000000" stroke="none" 
	d="
M1.000000,13.000000 
	C1.000000,9.003872 1.000000,5.007744 1.000000,1.018885 
	C151.000000,1.026155 301.000000,1.026155 451.000000,1.026155 
	C451.000000,4.715423 451.000000,8.378536 450.531372,12.528188 
	C300.375183,13.009818 150.687592,13.004910 1.000000,13.000000 
z"/>
<path fill="#FFFFFF" opacity="1.000000" stroke="none" 
	d="
M451.000000,139.000000 
	C451.000000,142.996124 451.000000,146.992264 451.000000,150.981110 
	C301.000000,150.973831 151.000000,150.973831 1.000000,150.973831 
	C1.000000,147.284561 1.000000,143.621460 1.468608,139.471802 
	C151.624817,138.990173 301.312408,138.995087 451.000000,139.000000 
z"/>
<path fill="#2D3669" opacity="1.000000" stroke="none" 
	d="
M451.000000,138.531342 
	C301.312408,138.995087 151.624817,138.990173 1.468608,138.992630 
	C1.000000,97.312439 1.000000,55.624878 1.000000,13.468657 
	C150.687592,13.004910 300.375183,13.009818 450.531372,13.007363 
	C451.000000,54.687561 451.000000,96.375122 451.000000,138.531342 
M51.500019,16.119034 
	C35.751156,16.119034 20.002295,16.119034 4.386119,16.119034 
	C4.386119,56.416706 4.386119,95.997688 4.386119,135.522919 
	C152.368179,135.522919 300.052368,135.522919 447.613831,135.522919 
	C447.613831,95.583237 447.613831,56.002243 447.613831,16.119049 
	C315.710968,16.119049 184.105499,16.119049 51.500019,16.119034 
z"/>
<path fill="#FDFDFE" opacity="1.000000" stroke="none" 
	d="
M52.000023,16.119041 
	C184.105499,16.119049 315.710968,16.119049 447.613831,16.119049 
	C447.613831,56.002243 447.613831,95.583237 447.613831,135.522919 
	C300.052368,135.522919 152.368179,135.522919 4.386119,135.522919 
	C4.386119,95.997688 4.386119,56.416706 4.386119,16.119034 
	C20.002295,16.119034 35.751156,16.119034 52.000023,16.119041 
M81.967773,53.493305 
	C80.466072,49.334854 78.964363,45.176403 77.505280,41.135979 
	C73.062103,41.135979 69.087570,41.135979 64.970657,41.135979 
	C64.970657,58.451767 64.970657,75.623367 64.970657,92.759987 
	C68.447617,92.759987 71.545914,92.759987 74.620338,92.759987 
	C74.620338,82.329025 74.620338,72.137497 74.620338,61.945965 
	C78.259056,69.786140 81.200981,77.654243 83.856903,85.617744 
	C84.695213,88.131325 85.951981,88.856598 88.508102,88.897697 
	C91.194023,88.940895 92.255981,87.849747 93.067139,85.483971 
	C95.711418,77.771942 98.568604,70.132919 101.343864,62.465801 
	C101.643539,62.527081 101.943214,62.588356 102.242889,62.649632 
	C102.242889,72.706520 102.242889,82.763405 102.242889,92.709480 
	C105.904556,92.709480 109.156654,92.709480 112.461060,92.709480 
	C112.461060,75.366150 112.461060,58.321518 112.461060,40.993721 
	C109.660637,40.993721 107.140541,41.273815 104.708931,40.929329 
	C100.878510,40.386673 99.100151,41.887413 98.015800,45.535709 
	C96.030884,52.213932 93.548988,58.743645 91.314880,65.348999 
	C90.471474,67.842621 89.740479,70.374268 88.775169,73.477028 
	C86.375130,66.490196 84.273262,60.371376 81.967773,53.493305 
M56.024616,83.445702 
	C51.646141,69.347733 47.267666,55.249763 42.886475,41.143051 
	C38.131981,41.143051 33.667168,41.143051 28.852251,41.143051 
	C23.538408,58.269535 18.235245,75.361603 12.832314,92.775223 
	C16.979176,92.775223 20.729362,92.775223 24.601480,92.775223 
	C25.692471,88.863129 26.751244,85.066551 27.816685,81.246071 
	C33.202179,81.246071 38.299282,81.246071 43.316433,81.246071 
	C47.522354,94.327065 47.998592,94.666679 58.749260,92.284485 
	C57.899151,89.589348 57.053043,86.906898 56.024616,83.445702 
M179.357559,52.039631 
	C175.110626,60.117897 174.664093,68.621292 177.123077,77.208839 
	C179.738754,86.343597 186.026016,91.893105 195.359085,93.579323 
	C203.387436,95.029816 210.364929,92.918419 215.912277,86.446632 
	C213.944244,84.099342 212.168930,81.981903 210.419952,79.895866 
	C199.015717,88.440834 189.750305,81.757233 188.692139,73.816490 
	C187.957306,68.302193 188.343307,62.109581 190.182968,56.911747 
	C192.618301,50.030918 199.821198,48.362434 206.398132,51.766830 
	C207.395432,52.283062 208.372543,52.838303 209.536179,53.471989 
	C211.487381,51.232876 213.319885,49.129963 215.124054,47.059578 
	C205.409882,36.071789 189.163513,38.199051 179.357559,52.039631 
M241.325943,68.053375 
	C236.720276,69.352188 231.864014,70.106323 227.569839,72.082123 
	C221.667175,74.798019 219.775955,81.454422 222.403931,87.362122 
	C224.740799,92.615440 230.749756,95.300400 236.645264,93.374466 
	C239.418823,92.468407 241.969971,90.881538 244.515259,89.654587 
	C246.476486,95.960915 251.239136,91.808037 254.856262,93.062607 
	C254.856262,84.202980 255.203476,75.902908 254.760498,67.645226 
	C254.299667,59.054379 249.818192,54.118393 242.313812,53.203987 
	C235.300598,52.349430 228.900558,54.262764 222.746765,58.316006 
	C224.095795,60.780449 225.331787,63.038368 226.490280,65.154709 
	C230.077316,64.146454 233.192627,62.873714 236.418076,62.460327 
	C240.884384,61.887913 242.919647,64.111191 241.325943,68.053375 
M328.287201,67.378159 
	C326.556305,58.910404 322.326630,54.381138 315.050049,53.203438 
	C307.784637,52.027546 300.416534,55.642601 296.538666,62.285755 
	C291.671814,70.623108 293.169891,82.999680 299.773834,89.013763 
	C306.844482,95.452873 318.275543,95.664734 327.139404,89.331383 
	C325.997253,87.231659 324.836609,85.097939 323.706726,83.020752 
	C312.051605,86.611542 307.501099,85.176445 305.275848,76.981201 
	C312.929169,76.981201 320.466919,76.981201 328.459229,76.981201 
	C328.459229,73.750694 328.459229,70.976288 328.287201,67.378159 
M353.476074,53.023888 
	C344.100067,53.674416 337.787872,58.704063 335.426147,67.406334 
	C332.984314,76.403664 336.039398,86.016037 342.799805,90.606628 
	C350.041565,95.524086 360.326385,95.049408 368.126892,89.301361 
	C366.973236,87.184631 365.805542,85.042198 364.670563,82.959801 
	C353.329742,86.705353 348.312164,85.103600 346.316589,76.906296 
	C353.963196,76.906296 361.506683,76.906296 368.931122,76.906296 
	C371.884705,64.033005 366.082794,54.810295 353.476074,53.023888 
M435.531281,59.050053 
	C434.937744,58.074978 434.578796,56.708374 433.712158,56.189030 
	C428.494019,53.062012 422.889374,52.079811 416.949127,53.830376 
	C411.919586,55.312569 408.457184,58.242531 407.746704,63.756901 
	C407.014343,69.441376 410.070496,72.884010 414.670288,75.283821 
	C417.313812,76.663002 420.253754,77.502655 422.807281,79.012932 
	C424.004974,79.721291 424.604584,81.440750 425.475220,82.701981 
	C424.177917,83.531235 422.792328,85.170456 421.599579,85.040459 
	C417.761719,84.622154 413.994995,83.551109 409.599365,82.601906 
	C408.600098,83.941048 407.142242,85.894791 405.500671,88.094719 
	C412.096130,93.710876 419.191284,95.250229 427.094757,93.018570 
	C432.667114,91.445137 435.873169,87.693214 436.375061,82.536751 
	C436.886414,77.283272 434.554810,73.583885 428.859253,70.885658 
	C426.763947,69.893036 424.386292,69.414871 422.443054,68.209358 
	C420.952789,67.284843 419.942291,65.586990 418.718414,64.233093 
	C420.499512,63.430416 422.291412,61.957127 424.059174,61.985500 
	C426.580505,62.025970 429.084198,63.167225 431.763275,63.883152 
	C432.852570,62.493484 433.974182,61.062622 435.531281,59.050053 
M274.986176,57.058289 
	C273.330719,50.463001 268.541931,55.675488 265.356506,53.814228 
	C265.356506,67.252022 265.356506,79.976570 265.356506,92.742645 
	C269.240601,92.742645 272.824585,92.742645 276.832642,92.742645 
	C276.832642,87.194160 276.832489,81.901176 276.832672,76.608192 
	C276.833069,66.043633 278.739380,63.927292 289.372101,62.880329 
	C289.772522,61.354099 290.229431,59.771904 290.600037,58.169746 
	C291.635773,53.692032 290.355469,51.982014 285.901276,53.265575 
	C282.753754,54.172596 280.109009,56.764561 277.147827,58.441986 
	C276.700409,58.695454 275.751740,58.064053 274.986176,57.058289 
M387.895020,58.069660 
	C386.964752,53.347973 386.009613,53.010109 378.259399,54.616302 
	C378.259399,67.351471 378.259399,80.067696 378.259399,92.847351 
	C382.049835,92.847351 385.509857,92.847351 389.500427,92.847351 
	C389.500427,86.084259 389.422943,79.461548 389.524597,72.841583 
	C389.608063,67.406120 393.121277,63.635498 398.306610,63.201134 
	C399.542572,63.097599 400.794556,63.185783 402.159912,63.185783 
	C402.873596,59.888435 403.492310,57.029728 404.166199,53.916294 
	C398.507935,51.947433 394.439087,53.763950 390.782990,57.462757 
	C390.089050,58.164783 388.919983,58.397148 387.895020,58.069660 
M141.590302,45.510651 
	C141.590302,67.916939 141.590302,90.323235 141.590302,112.789963 
	C144.402908,112.789963 146.502731,112.789963 148.827423,112.789963 
	C148.827423,86.525452 148.827423,60.465672 148.827423,34.295265 
	C146.350204,34.295265 144.119629,34.295265 141.590134,34.295265 
	C141.590134,37.892998 141.590134,41.203442 141.590302,45.510651 
z"/>
<path fill="#30396A" opacity="1.000000" stroke="none" 
	d="
M82.069580,53.872932 
	C84.273262,60.371376 86.375130,66.490196 88.775169,73.477028 
	C89.740479,70.374268 90.471474,67.842621 91.314880,65.348999 
	C93.548988,58.743645 96.030884,52.213932 98.015800,45.535709 
	C99.100151,41.887413 100.878510,40.386673 104.708931,40.929329 
	C107.140541,41.273815 109.660637,40.993721 112.461060,40.993721 
	C112.461060,58.321518 112.461060,75.366150 112.461060,92.709480 
	C109.156654,92.709480 105.904556,92.709480 102.242889,92.709480 
	C102.242889,82.763405 102.242889,72.706520 102.242889,62.649632 
	C101.943214,62.588356 101.643539,62.527081 101.343864,62.465801 
	C98.568604,70.132919 95.711418,77.771942 93.067139,85.483971 
	C92.255981,87.849747 91.194023,88.940895 88.508102,88.897697 
	C85.951981,88.856598 84.695213,88.131325 83.856903,85.617744 
	C81.200981,77.654243 78.259056,69.786140 74.620338,61.945965 
	C74.620338,72.137497 74.620338,82.329025 74.620338,92.759987 
	C71.545914,92.759987 68.447617,92.759987 64.970657,92.759987 
	C64.970657,75.623367 64.970657,58.451767 64.970657,41.135979 
	C69.087570,41.135979 73.062103,41.135979 77.505280,41.135979 
	C78.964363,45.176403 80.466072,49.334854 82.069580,53.872932 
z"/>
<path fill="#2F386A" opacity="1.000000" stroke="none" 
	d="
M56.115776,83.835068 
	C57.053043,86.906898 57.899151,89.589348 58.749260,92.284485 
	C47.998592,94.666679 47.522354,94.327065 43.316433,81.246071 
	C38.299282,81.246071 33.202179,81.246071 27.816685,81.246071 
	C26.751244,85.066551 25.692471,88.863129 24.601480,92.775223 
	C20.729362,92.775223 16.979176,92.775223 12.832314,92.775223 
	C18.235245,75.361603 23.538408,58.269535 28.852251,41.143051 
	C33.667168,41.143051 38.131981,41.143051 42.886475,41.143051 
	C47.267666,55.249763 51.646141,69.347733 56.115776,83.835068 
M31.257605,71.903854 
	C34.449463,71.903854 37.641319,71.903854 41.177486,71.903854 
	C39.285355,64.390495 37.570908,57.582706 35.497879,49.351044 
	C33.594578,57.792179 32.038864,64.691750 31.257605,71.903854 
z"/>
<path fill="#30396B" opacity="1.000000" stroke="none" 
	d="
M179.560303,51.729248 
	C189.163513,38.199051 205.409882,36.071789 215.124054,47.059578 
	C213.319885,49.129963 211.487381,51.232876 209.536179,53.471989 
	C208.372543,52.838303 207.395432,52.283062 206.398132,51.766830 
	C199.821198,48.362434 192.618301,50.030918 190.182968,56.911747 
	C188.343307,62.109581 187.957306,68.302193 188.692139,73.816490 
	C189.750305,81.757233 199.015717,88.440834 210.419952,79.895866 
	C212.168930,81.981903 213.944244,84.099342 215.912277,86.446632 
	C210.364929,92.918419 203.387436,95.029816 195.359085,93.579323 
	C186.026016,91.893105 179.738754,86.343597 177.123077,77.208839 
	C174.664093,68.621292 175.110626,60.117897 179.560303,51.729248 
z"/>
<path fill="#31396B" opacity="1.000000" stroke="none" 
	d="
M241.734497,68.002441 
	C242.919647,64.111191 240.884384,61.887913 236.418076,62.460327 
	C233.192627,62.873714 230.077316,64.146454 226.490280,65.154709 
	C225.331787,63.038368 224.095795,60.780449 222.746765,58.316006 
	C228.900558,54.262764 235.300598,52.349430 242.313812,53.203987 
	C249.818192,54.118393 254.299667,59.054379 254.760498,67.645226 
	C255.203476,75.902908 254.856262,84.202980 254.856262,93.062607 
	C251.239136,91.808037 246.476486,95.960915 244.515259,89.654587 
	C241.969971,90.881538 239.418823,92.468407 236.645264,93.374466 
	C230.749756,95.300400 224.740799,92.615440 222.403931,87.362122 
	C219.775955,81.454422 221.667175,74.798019 227.569839,72.082123 
	C231.864014,70.106323 236.720276,69.352188 241.734497,68.002441 
M233.051666,83.091072 
	C235.535721,85.938606 238.803574,85.600548 240.864059,83.455040 
	C242.628098,81.618240 242.962982,78.408890 243.929932,75.806587 
	C243.403748,75.541603 242.877563,75.276619 242.351379,75.011635 
	C238.712051,76.820145 232.718918,75.303421 233.051666,83.091072 
z"/>
<path fill="#30386A" opacity="1.000000" stroke="none" 
	d="
M328.373230,67.790024 
	C328.459229,70.976288 328.459229,73.750694 328.459229,76.981201 
	C320.466919,76.981201 312.929169,76.981201 305.275848,76.981201 
	C307.501099,85.176445 312.051605,86.611542 323.706726,83.020752 
	C324.836609,85.097939 325.997253,87.231659 327.139404,89.331383 
	C318.275543,95.664734 306.844482,95.452873 299.773834,89.013763 
	C293.169891,82.999680 291.671814,70.623108 296.538666,62.285755 
	C300.416534,55.642601 307.784637,52.027546 315.050049,53.203438 
	C322.326630,54.381138 326.556305,58.910404 328.373230,67.790024 
M306.029633,65.754501 
	C305.760040,66.750595 305.490479,67.746689 305.195526,68.836586 
	C309.905518,68.836586 314.183502,68.836586 320.166382,68.836586 
	C317.868042,66.047546 316.477356,62.819813 314.768524,62.641548 
	C312.100281,62.363201 309.216492,64.151215 306.029633,65.754501 
z"/>
<path fill="#30386A" opacity="1.000000" stroke="none" 
	d="
M353.899719,53.043968 
	C366.082794,54.810295 371.884705,64.033005 368.931122,76.906296 
	C361.506683,76.906296 353.963196,76.906296 346.316589,76.906296 
	C348.312164,85.103600 353.329742,86.705353 364.670563,82.959801 
	C365.805542,85.042198 366.973236,87.184631 368.126892,89.301361 
	C360.326385,95.049408 350.041565,95.524086 342.799805,90.606628 
	C336.039398,86.016037 332.984314,76.403664 335.426147,67.406334 
	C337.787872,58.704063 344.100067,53.674416 353.899719,53.043968 
M359.545441,67.100044 
	C358.709991,63.497673 356.458893,61.640816 352.758942,62.058754 
	C348.851929,62.500088 346.672333,64.800583 346.134216,69.521957 
	C350.886566,68.950455 355.272308,68.423050 359.545441,67.100044 
z"/>
<path fill="#313A6C" opacity="1.000000" stroke="none" 
	d="
M435.313538,59.340908 
	C433.974182,61.062622 432.852570,62.493484 431.763275,63.883152 
	C429.084198,63.167225 426.580505,62.025970 424.059174,61.985500 
	C422.291412,61.957127 420.499512,63.430416 418.718414,64.233093 
	C419.942291,65.586990 420.952789,67.284843 422.443054,68.209358 
	C424.386292,69.414871 426.763947,69.893036 428.859253,70.885658 
	C434.554810,73.583885 436.886414,77.283272 436.375061,82.536751 
	C435.873169,87.693214 432.667114,91.445137 427.094757,93.018570 
	C419.191284,95.250229 412.096130,93.710876 405.500671,88.094719 
	C407.142242,85.894791 408.600098,83.941048 409.599365,82.601906 
	C413.994995,83.551109 417.761719,84.622154 421.599579,85.040459 
	C422.792328,85.170456 424.177917,83.531235 425.475220,82.701981 
	C424.604584,81.440750 424.004974,79.721291 422.807281,79.012932 
	C420.253754,77.502655 417.313812,76.663002 414.670288,75.283821 
	C410.070496,72.884010 407.014343,69.441376 407.746704,63.756901 
	C408.457184,58.242531 411.919586,55.312569 416.949127,53.830376 
	C422.889374,52.079811 428.494019,53.062012 433.712158,56.189030 
	C434.578796,56.708374 434.937744,58.074978 435.313538,59.340908 
z"/>
<path fill="#313A6B" opacity="1.000000" stroke="none" 
	d="
M275.010559,57.450123 
	C275.751740,58.064053 276.700409,58.695454 277.147827,58.441986 
	C280.109009,56.764561 282.753754,54.172596 285.901276,53.265575 
	C290.355469,51.982014 291.635773,53.692032 290.600037,58.169746 
	C290.229431,59.771904 289.772522,61.354099 289.372101,62.880329 
	C278.739380,63.927292 276.833069,66.043633 276.832672,76.608192 
	C276.832489,81.901176 276.832642,87.194160 276.832642,92.742645 
	C272.824585,92.742645 269.240601,92.742645 265.356506,92.742645 
	C265.356506,79.976570 265.356506,67.252022 265.356506,53.814228 
	C268.541931,55.675488 273.330719,50.463001 275.010559,57.450123 
z"/>
<path fill="#2D3669" opacity="1.000000" stroke="none" 
	d="
M387.932556,58.457932 
	C388.919983,58.397148 390.089050,58.164783 390.782990,57.462757 
	C394.439087,53.763950 398.507935,51.947433 404.166199,53.916294 
	C403.492310,57.029728 402.873596,59.888435 402.159912,63.185783 
	C400.794556,63.185783 399.542572,63.097599 398.306610,63.201134 
	C393.121277,63.635498 389.608063,67.406120 389.524597,72.841583 
	C389.422943,79.461548 389.500427,86.084259 389.500427,92.847351 
	C385.509857,92.847351 382.049835,92.847351 378.259399,92.847351 
	C378.259399,80.067696 378.259399,67.351471 378.259399,54.616302 
	C386.009613,53.010109 386.964752,53.347973 387.932556,58.457932 
z"/>
<path fill="#2B3467" opacity="1.000000" stroke="none" 
	d="
M141.590210,45.012268 
	C141.590134,41.203442 141.590134,37.892998 141.590134,34.295265 
	C144.119629,34.295265 146.350204,34.295265 148.827423,34.295265 
	C148.827423,60.465672 148.827423,86.525452 148.827423,112.789963 
	C146.502731,112.789963 144.402908,112.789963 141.590302,112.789963 
	C141.590302,90.323235 141.590302,67.916939 141.590210,45.012268 
z"/>
<path fill="#F3F3F6" opacity="1.000000" stroke="none" 
	d="
M30.870380,71.747589 
	C32.038864,64.691750 33.594578,57.792179 35.497879,49.351044 
	C37.570908,57.582706 39.285355,64.390495 41.177486,71.903854 
	C37.641319,71.903854 34.449463,71.903854 30.870380,71.747589 
z"/>
<path fill="#F7F8F9" opacity="1.000000" stroke="none" 
	d="
M232.908447,82.704887 
	C232.718918,75.303421 238.712051,76.820145 242.351379,75.011635 
	C242.877563,75.276619 243.403748,75.541603 243.929932,75.806587 
	C242.962982,78.408890 242.628098,81.618240 240.864059,83.455040 
	C238.803574,85.600548 235.535721,85.938606 232.908447,82.704887 
z"/>
<path fill="#F8F8FA" opacity="1.000000" stroke="none" 
	d="
M306.226807,65.409119 
	C309.216492,64.151215 312.100281,62.363201 314.768524,62.641548 
	C316.477356,62.819813 317.868042,66.047546 320.166382,68.836586 
	C314.183502,68.836586 309.905518,68.836586 305.195526,68.836586 
	C305.490479,67.746689 305.760040,66.750595 306.226807,65.409119 
z"/>
<path fill="#F8F8FA" opacity="1.000000" stroke="none" 
	d="
M359.601746,67.497841 
	C355.272308,68.423050 350.886566,68.950455 346.134216,69.521957 
	C346.672333,64.800583 348.851929,62.500088 352.758942,62.058754 
	C356.458893,61.640816 358.709991,63.497673 359.601746,67.497841 
z"/>
</svg>